#Comment line ignore any data following # character 
#Hierarchical Translation and Rotation (.htr) file 
[Header]	
#Header keywords are followed by a single value 
FileType HTR		#Single word string
DataType HTRS		#Translation followed by rotation and scale data
FileVersion 1		#integer
NumSegments 84		#integer
NumFrames 2		#integer
DataFrameRate 30		#integer, data frame rate in this file
EulerRotationOrder ZYX
CalibrationUnits mm
RotationUnits Degrees
GlobalAxisofGravity Y
BoneLengthAxis Y
ScaleFactor 1.00
[SegmentNames&Hierarchy]
#CHILD	PARENT
MASTER GLOBAL
root MASTER
chest root
L_mid_tent01 root
R_mid_tent01 root
spine01 root
Bip01_Neck chest
L_humerus chest
R_humerus chest
weapon_bone chest
Bip01_Head Bip01_Neck
eye_left_bone Bip01_Head
eye_right_bone Bip01_Head
L_forearm L_humerus
L_front_hand L_forearm
L_weapon_bone L_forearm
L_front_hand01_01 L_front_hand
L_front_hand02_01 L_front_hand
L_front_hand03_01 L_front_hand
L_front_hand01_02 L_front_hand01_01
L_front_hand02_02 L_front_hand02_01
L_front_hand03_02 L_front_hand03_01
R_forearm R_humerus
R_front_hand R_forearm
R_weapon_bone R_forearm
R_front_hand01_01 R_front_hand
R_front_hand02_01 R_front_hand
R_front_hand03_01 R_front_hand
R_front_hand01_02 R_front_hand01_01
R_front_hand02_02 R_front_hand02_01
R_front_hand03_02 R_front_hand03_01
null_rope01_connect L_mid_tent01
Rope1_Seg01 null_rope01_connect
Rope1_Seg02 Rope1_Seg01
Rope1_Seg03 Rope1_Seg02
Rope1_Seg04 Rope1_Seg03
Rope1_Seg05 Rope1_Seg04
Rope1_Seg06 Rope1_Seg05
Rope1_Seg07 Rope1_Seg06
Rope1_Seg09 Rope1_Seg07
L_mid_hand01 Rope1_Seg09
L_mid_hand02 Rope1_Seg09
L_mid_hand03 Rope1_Seg09
null_rope02_connect R_mid_tent01
Rope2_Seg01 null_rope02_connect
Rope2_Seg02 Rope2_Seg01
Rope2_Seg03 Rope2_Seg02
Rope2_Seg04 Rope2_Seg03
Rope2_Seg05 Rope2_Seg04
Rope2_Seg06 Rope2_Seg05
Rope2_Seg07 Rope2_Seg06
Rope2_Seg09 Rope2_Seg07
R_mid_hand01 Rope2_Seg09
R_mid_hand02 Rope2_Seg09
R_mid_hand03 Rope2_Seg09
spine02 spine01
spine03 spine02
pelvis spine03
null_rope03_connect pelvis
null_rope04_connect pelvis
Rope3_Seg01 null_rope03_connect
Rope3_Seg02 Rope3_Seg01
Rope3_Seg03 Rope3_Seg02
Rope3_Seg04 Rope3_Seg03
Rope3_Seg05 Rope3_Seg04
Rope3_Seg06 Rope3_Seg05
Rope3_Seg07 Rope3_Seg06
Rope3_Seg08 Rope3_Seg07
Rope3_Seg09 Rope3_Seg08
R_rear_hand01 Rope3_Seg09
R_rear_hand02 Rope3_Seg09
R_rear_hand03 Rope3_Seg09
Rope4_Seg01 null_rope04_connect
Rope4_Seg02 Rope4_Seg01
Rope4_Seg03 Rope4_Seg02
Rope4_Seg04 Rope4_Seg03
Rope4_Seg05 Rope4_Seg04
Rope4_Seg06 Rope4_Seg05
Rope4_Seg07 Rope4_Seg06
Rope4_Seg08 Rope4_Seg07
Rope4_Seg09 Rope4_Seg08
L_rear_hand01 Rope4_Seg09
L_rear_hand02 Rope4_Seg09
L_rear_hand03 Rope4_Seg09
[BasePosition]
#SegmentName Tx, Ty, Tz, Rx, Ry, Rz, BoneLength
MASTER 0.000000 0.000000 0.000000 -90.000000 0.000000 0.000000 10.000000 
root 0.000000 0.000000 0.000000 0.000000 0.000000 0.000000 10.000000 
chest 0.000000 0.000000 0.000000 0.000000 0.000000 0.000000 10.000000 
L_mid_tent01 0.000000 0.000000 0.000000 0.000000 0.000000 0.000000 10.000000 
R_mid_tent01 0.000000 0.000000 0.000000 0.000000 0.000000 0.000000 10.000000 
spine01 0.000000 0.000000 0.000000 0.000000 0.000000 0.000000 10.000000 
Bip01_Neck 0.000000 0.000000 0.000000 0.000000 0.000000 0.000000 10.000000 
L_humerus 0.000000 0.000000 0.000000 0.000000 0.000000 0.000000 10.000000 
R_humerus 0.000000 0.000000 0.000000 0.000000 0.000000 0.000000 10.000000 
weapon_bone 0.000000 0.000000 0.000000 0.000000 0.000000 0.000000 10.000000 
Bip01_Head 0.000000 0.000000 0.000000 0.000000 0.000000 0.000000 10.000000 
eye_left_bone 0.000000 0.000000 0.000000 0.000000 0.000000 0.000000 10.000000 
eye_right_bone 0.000000 0.000000 0.000000 0.000000 0.000000 0.000000 10.000000 
L_forearm 0.000000 0.000000 0.000000 0.000000 0.000000 0.000000 10.000000 
L_front_hand 0.000000 0.000000 0.000000 0.000000 0.000000 0.000000 10.000000 
L_weapon_bone 0.000000 0.000000 0.000000 0.000000 0.000000 0.000000 10.000000 
L_front_hand01_01 0.000000 0.000000 0.000000 0.000000 0.000000 0.000000 10.000000 
L_front_hand02_01 0.000000 0.000000 0.000000 0.000000 0.000000 0.000000 10.000000 
L_front_hand03_01 0.000000 0.000000 0.000000 0.000000 0.000000 0.000000 10.000000 
L_front_hand01_02 0.000000 0.000000 0.000000 0.000000 0.000000 0.000000 10.000000 
L_front_hand02_02 0.000000 0.000000 0.000000 0.000000 0.000000 0.000000 10.000000 
L_front_hand03_02 0.000000 0.000000 0.000000 0.000000 0.000000 0.000000 10.000000 
R_forearm 0.000000 0.000000 0.000000 0.000000 0.000000 0.000000 10.000000 
R_front_hand 0.000000 0.000000 0.000000 0.000000 0.000000 0.000000 10.000000 
R_weapon_bone 0.000000 0.000000 0.000000 0.000000 0.000000 0.000000 10.000000 
R_front_hand01_01 0.000000 0.000000 0.000000 0.000000 0.000000 0.000000 10.000000 
R_front_hand02_01 0.000000 0.000000 0.000000 0.000000 0.000000 0.000000 10.000000 
R_front_hand03_01 0.000000 0.000000 0.000000 0.000000 0.000000 0.000000 10.000000 
R_front_hand01_02 0.000000 0.000000 0.000000 0.000000 0.000000 0.000000 10.000000 
R_front_hand02_02 0.000000 0.000000 0.000000 0.000000 0.000000 0.000000 10.000000 
R_front_hand03_02 0.000000 0.000000 0.000000 0.000000 0.000000 0.000000 10.000000 
null_rope01_connect 0.000000 0.000000 0.000000 0.000000 0.000000 0.000000 10.000000 
Rope1_Seg01 0.000000 0.000000 0.000000 0.000000 0.000000 0.000000 10.000000 
Rope1_Seg02 0.000000 0.000000 0.000000 0.000000 0.000000 0.000000 10.000000 
Rope1_Seg03 0.000000 0.000000 0.000000 0.000000 0.000000 0.000000 10.000000 
Rope1_Seg04 0.000000 0.000000 0.000000 0.000000 0.000000 0.000000 10.000000 
Rope1_Seg05 0.000000 0.000000 0.000000 0.000000 0.000000 0.000000 10.000000 
Rope1_Seg06 0.000000 0.000000 0.000000 0.000000 0.000000 0.000000 10.000000 
Rope1_Seg07 0.000000 0.000000 0.000000 0.000000 0.000000 0.000000 10.000000 
Rope1_Seg09 0.000000 0.000000 0.000000 0.000000 0.000000 0.000000 10.000000 
L_mid_hand01 0.000000 0.000000 0.000000 0.000000 0.000000 0.000000 10.000000 
L_mid_hand02 0.000000 0.000000 0.000000 0.000000 0.000000 0.000000 10.000000 
L_mid_hand03 0.000000 0.000000 0.000000 0.000000 0.000000 0.000000 10.000000 
null_rope02_connect 0.000000 0.000000 0.000000 0.000000 0.000000 0.000000 10.000000 
Rope2_Seg01 0.000000 0.000000 0.000000 0.000000 0.000000 0.000000 10.000000 
Rope2_Seg02 0.000000 0.000000 0.000000 0.000000 0.000000 0.000000 10.000000 
Rope2_Seg03 0.000000 0.000000 0.000000 0.000000 0.000000 0.000000 10.000000 
Rope2_Seg04 0.000000 0.000000 0.000000 0.000000 0.000000 0.000000 10.000000 
Rope2_Seg05 0.000000 0.000000 0.000000 0.000000 0.000000 0.000000 10.000000 
Rope2_Seg06 0.000000 0.000000 0.000000 0.000000 0.000000 0.000000 10.000000 
Rope2_Seg07 0.000000 0.000000 0.000000 0.000000 0.000000 0.000000 10.000000 
Rope2_Seg09 0.000000 0.000000 0.000000 0.000000 0.000000 0.000000 10.000000 
R_mid_hand01 0.000000 0.000000 0.000000 0.000000 0.000000 0.000000 10.000000 
R_mid_hand02 0.000000 0.000000 0.000000 0.000000 0.000000 0.000000 10.000000 
R_mid_hand03 0.000000 0.000000 0.000000 0.000000 0.000000 0.000000 10.000000 
spine02 0.000000 0.000000 0.000000 0.000000 0.000000 0.000000 10.000000 
spine03 0.000000 0.000000 0.000000 0.000000 0.000000 0.000000 10.000000 
pelvis 0.000000 0.000000 0.000000 0.000000 0.000000 0.000000 10.000000 
null_rope03_connect 0.000000 0.000000 0.000000 0.000000 0.000000 0.000000 10.000000 
null_rope04_connect 0.000000 0.000000 0.000000 0.000000 0.000000 0.000000 10.000000 
Rope3_Seg01 0.000000 0.000000 0.000000 0.000000 0.000000 0.000000 10.000000 
Rope3_Seg02 0.000000 0.000000 0.000000 0.000000 0.000000 0.000000 10.000000 
Rope3_Seg03 0.000000 0.000000 0.000000 0.000000 0.000000 0.000000 10.000000 
Rope3_Seg04 0.000000 0.000000 0.000000 0.000000 0.000000 0.000000 10.000000 
Rope3_Seg05 0.000000 0.000000 0.000000 0.000000 0.000000 0.000000 10.000000 
Rope3_Seg06 0.000000 0.000000 0.000000 0.000000 0.000000 0.000000 10.000000 
Rope3_Seg07 0.000000 0.000000 0.000000 0.000000 0.000000 0.000000 10.000000 
Rope3_Seg08 0.000000 0.000000 0.000000 0.000000 0.000000 0.000000 10.000000 
Rope3_Seg09 0.000000 0.000000 0.000000 0.000000 0.000000 0.000000 10.000000 
R_rear_hand01 0.000000 0.000000 0.000000 0.000000 0.000000 0.000000 10.000000 
R_rear_hand02 0.000000 0.000000 0.000000 0.000000 0.000000 0.000000 10.000000 
R_rear_hand03 0.000000 0.000000 0.000000 0.000000 0.000000 0.000000 10.000000 
Rope4_Seg01 0.000000 0.000000 0.000000 0.000000 0.000000 0.000000 10.000000 
Rope4_Seg02 0.000000 0.000000 0.000000 0.000000 0.000000 0.000000 10.000000 
Rope4_Seg03 0.000000 0.000000 0.000000 0.000000 0.000000 0.000000 10.000000 
Rope4_Seg04 0.000000 0.000000 0.000000 0.000000 0.000000 0.000000 10.000000 
Rope4_Seg05 0.000000 0.000000 0.000000 0.000000 0.000000 0.000000 10.000000 
Rope4_Seg06 0.000000 0.000000 0.000000 0.000000 0.000000 0.000000 10.000000 
Rope4_Seg07 0.000000 0.000000 0.000000 0.000000 0.000000 0.000000 10.000000 
Rope4_Seg08 0.000000 0.000000 0.000000 0.000000 0.000000 0.000000 10.000000 
Rope4_Seg09 0.000000 0.000000 0.000000 0.000000 0.000000 0.000000 10.000000 
L_rear_hand01 0.000000 0.000000 0.000000 0.000000 0.000000 0.000000 10.000000 
L_rear_hand02 0.000000 0.000000 0.000000 0.000000 0.000000 0.000000 10.000000 
L_rear_hand03 0.000000 0.000000 0.000000 0.000000 0.000000 0.000000 10.000000 
#Beginning of Data. Separated by tabs
#Fr	Tx	Ty	Tz	Rx	Ry	Rz	SF
[MASTER]
48 -214.692062 -7060.516602 84.056694 0.000000 -0.002347 -90.000000 7064.280273
49 -148.805374 -7137.870117 84.056694 0.000000 -0.002347 -90.000000 7139.916016
[root]
48 -8.685843 16.502293 1461.240112 -77.605362 -14.987164 168.638245 1461.359009
49 -2.670679 16.502295 1456.933350 -82.415474 -14.174857 172.709457 1457.029297
[chest]
48 -84.512650 -34.090519 0.000000 3.043325 4.905062 177.839188 91.129311
49 -84.512650 -34.090519 0.000000 0.913704 3.193360 174.336548 91.129311
[L_mid_tent01]
48 27.299408 22.179325 -249.918732 -19.316116 6.679245 3.241612 252.381744
49 27.299414 22.179327 -249.918732 -19.835253 8.529051 6.599389 252.381760
[R_mid_tent01]
48 23.228794 24.509907 226.238495 -166.488831 -29.240084 32.536369 228.744751
49 23.228794 24.509907 226.238495 -166.034805 -25.201097 29.748804 228.744751
[spine01]
48 -0.361383 -0.195265 0.000000 0.001947 0.001311 22.078302 0.410763
49 -0.361383 -0.195265 0.000000 0.001947 0.001311 22.069483 0.410763
[Bip01_Neck]
48 165.484543 71.581718 0.000119 176.643677 -1.657967 43.431911 180.302734
49 165.484543 71.581718 0.000119 176.643677 -1.657967 43.431911 180.302734
[L_humerus]
48 -13.983130 -135.272980 -120.471481 25.041883 70.801636 113.724663 181.680161
49 -13.983130 -135.272980 -120.471481 14.064947 71.112068 103.241203 181.680161
[R_humerus]
48 -13.983309 -135.273102 125.287651 33.155018 -77.580200 62.339806 184.909012
49 -13.983309 -135.273102 125.287651 31.294455 -75.205559 64.260941 184.909012
[weapon_bone]
48 235.964890 -300.705902 0.000000 0.000000 -89.951546 -128.212341 382.234833
49 235.964890 -300.705902 0.000000 0.000000 -89.951546 -128.212341 382.234833
[Bip01_Head]
48 213.444489 185.715515 11.776998 18.223381 6.152122 -43.833607 283.173981
49 213.444580 185.715530 11.776990 18.223381 6.152122 -43.833611 283.174072
[eye_left_bone]
48 -24.626970 125.451866 -64.772606 0.000000 -90.000000 -99.840431 143.318359
49 -24.626970 125.451866 -64.772606 0.000000 -90.000000 -99.840431 143.318359
[eye_right_bone]
48 -24.626970 125.451866 64.327362 0.000000 -89.965736 80.156380 143.117676
49 -24.626970 125.451866 64.327362 0.000000 -89.965736 80.156380 143.117676
[L_forearm]
48 322.776093 0.000000 -0.000119 0.000397 -0.002313 -109.470459 322.776093
49 322.776093 0.000000 -0.000119 0.000396 -0.002313 -109.448235 322.776093
[L_front_hand]
48 241.149185 -0.042021 -3.300071 -178.667953 -1.835447 -27.422350 241.171753
49 241.149185 -0.042021 -3.300071 -178.667953 -1.835447 -27.422350 241.171753
[L_weapon_bone]
48 156.183838 0.000000 0.000000 0.000014 0.000007 0.000001 156.183838
49 156.183838 0.000000 0.000000 0.000014 0.000007 0.000001 156.183838
[L_front_hand01_01]
48 86.095154 20.947098 -0.655860 -0.366594 -0.477154 75.385574 88.609184
49 86.095154 20.947098 -0.655860 -0.366594 -0.477154 75.385574 88.609184
[L_front_hand02_01]
48 86.935165 -11.437475 24.513514 154.399796 -59.883835 -61.369587 91.046425
49 86.935165 -11.437475 24.513514 154.399796 -59.883835 -61.369587 91.046425
[L_front_hand03_01]
48 86.637497 -14.123976 -20.424902 -153.913849 58.118122 -62.702866 90.126129
49 86.637497 -14.123976 -20.424902 -153.913849 58.118122 -62.702866 90.126129
[L_front_hand01_02]
48 71.020905 -0.000179 0.000030 0.000334 -0.002323 -106.379684 71.020905
49 71.020905 -0.000179 0.000030 0.000334 -0.002323 -106.379684 71.020905
[L_front_hand02_02]
48 71.020927 -0.000119 0.000060 0.000334 -0.002323 -106.379684 71.020927
49 71.020927 -0.000119 0.000060 0.000334 -0.002323 -106.379684 71.020927
[L_front_hand03_02]
48 71.020905 -0.000060 0.000060 0.000334 -0.002323 -106.379684 71.020905
49 71.020905 -0.000060 0.000060 0.000334 -0.002323 -106.379684 71.020905
[R_forearm]
48 322.776428 -0.000060 0.000030 0.202074 0.065247 -108.113731 322.776428
49 322.776428 -0.000060 0.000030 0.202086 0.065208 -108.091324 322.776428
[R_front_hand]
48 238.847015 -0.006795 2.210259 -2.635298 -10.645461 -26.312506 238.857239
49 238.847015 -0.006795 2.210259 -2.635298 -10.645461 -26.312506 238.857239
[R_weapon_bone]
48 155.664093 0.002503 -0.000030 0.003487 0.001180 -90.988930 155.664078
49 155.664093 0.002503 -0.000030 0.003487 0.001180 -90.988930 155.664078
[R_front_hand01_01]
48 87.624611 14.231146 22.918642 -154.633499 -59.950619 61.746044 91.683487
49 87.624611 14.231146 22.918642 -154.633499 -59.950619 61.746044 91.683487
[R_front_hand02_01]
48 89.356956 14.367283 -19.491137 154.602661 58.302849 63.744389 92.579636
49 89.356956 14.367283 -19.491137 154.602661 58.302849 63.744389 92.579636
[R_front_hand03_01]
48 87.286232 -22.307278 -0.143439 0.162155 -0.423168 -75.767921 90.091743
49 87.286232 -22.307278 -0.143439 0.162155 -0.423168 -75.767921 90.091743
[R_front_hand01_02]
48 71.020905 0.000060 0.000119 0.002323 -0.000334 106.381706 71.020905
49 71.020905 0.000060 0.000119 0.002323 -0.000334 106.381714 71.020905
[R_front_hand02_02]
48 71.020844 -0.000030 -0.000119 0.002323 -0.000334 106.381706 71.020836
49 71.020844 -0.000030 -0.000119 0.002323 -0.000334 106.381714 71.020836
[R_front_hand03_02]
48 71.020905 0.000000 0.000030 0.002323 -0.000334 106.381706 71.020905
49 71.020905 0.000000 0.000030 0.002323 -0.000334 106.381714 71.020905
[null_rope01_connect]
48 328.732483 0.000000 -0.000238 107.646347 70.824501 27.104736 328.732483
49 328.732483 0.000000 -0.000238 125.575485 70.320717 40.535843 328.732483
[Rope1_Seg01]
48 0.000000 0.000000 0.000000 104.530991 14.813541 42.913715 0.000000
49 0.000000 0.000000 0.000000 93.024620 10.163348 43.902870 0.000000
[Rope1_Seg02]
48 139.999863 -0.000179 0.000000 -11.668654 4.340970 0.274297 139.999863
49 139.999863 -0.000179 0.000000 -9.157564 3.999616 0.162790 139.999863
[Rope1_Seg03]
48 139.999924 0.000060 -0.000060 -16.020798 4.492945 1.348480 139.999924
49 139.999924 0.000060 -0.000060 -11.866204 4.145314 0.725042 139.999924
[Rope1_Seg04]
48 139.999924 -0.000060 -0.000119 -6.206709 0.836039 1.685060 139.999924
49 139.999924 -0.000060 -0.000119 -1.651730 1.165096 -0.613623 139.999924
[Rope1_Seg05]
48 139.999832 0.000119 -0.000060 -54.362701 16.270847 10.033580 139.999832
49 139.999832 0.000119 -0.000060 -53.306343 15.646345 10.067349 139.999832
[Rope1_Seg06]
48 139.999954 0.000119 -0.000060 -18.190365 1.449948 16.144760 139.999954
49 139.999954 0.000119 -0.000060 -16.237190 0.398862 14.955069 139.999954
[Rope1_Seg07]
48 139.999985 0.000060 0.000000 -3.760873 -1.620950 6.427352 139.999985
49 139.999985 0.000060 0.000000 -3.540208 -1.396820 5.723000 139.999985
[Rope1_Seg09]
48 121.602913 0.000119 -0.000089 -89.793175 -1.359789 0.847147 121.602913
49 121.602913 0.000119 -0.000089 -89.793175 -1.359789 0.847147 121.602913
[L_mid_hand01]
48 103.859421 1.038730 8.195221 130.544373 -67.584534 -38.866943 104.187431
49 103.859421 1.038730 8.195221 130.544373 -67.584534 -38.866943 104.187431
[L_mid_hand02]
48 105.572853 -4.139662 -10.864139 -168.923172 43.409321 -73.498909 106.211075
49 105.572853 -4.139662 -10.864139 -168.923172 43.409309 -73.498886 106.211075
[L_mid_hand03]
48 104.641464 17.579376 -3.913581 -6.012627 17.808174 74.893669 106.179977
49 104.641464 17.579376 -3.913581 -6.012629 17.808178 74.893669 106.179977
[null_rope02_connect]
48 328.732849 0.000179 -0.000119 152.712997 -53.248562 133.059265 328.732849
49 328.732849 0.000179 -0.000119 150.656921 -58.736267 135.283142 328.732849
[Rope2_Seg01]
48 -0.000040 -0.000011 0.000000 75.714706 -8.996696 101.769287 0.000042
49 -0.000040 -0.000008 0.000000 69.888954 -6.196910 110.952034 0.000040
[Rope2_Seg02]
48 139.999741 -0.000060 -0.000119 8.792088 -3.363843 -7.894845 139.999756
49 139.999741 -0.000060 -0.000119 12.327639 -5.994620 -7.749037 139.999756
[Rope2_Seg03]
48 140.000107 0.000030 0.000000 7.044490 0.215064 -7.328574 140.000107
49 140.000107 0.000030 0.000000 7.743824 -1.897567 -5.964506 140.000107
[Rope2_Seg04]
48 139.999802 0.000000 -0.000060 3.261725 -7.705921 -0.411492 139.999802
49 139.999802 0.000000 -0.000060 3.223344 -9.510599 0.592345 139.999802
[Rope2_Seg05]
48 139.999985 -0.000060 0.000119 -0.484726 -9.016894 4.277630 139.999985
49 139.999985 -0.000060 0.000119 -0.077379 -8.767637 3.619229 139.999985
[Rope2_Seg06]
48 139.999893 -0.000030 -0.000119 0.106739 -4.001801 1.383612 139.999893
49 139.999893 -0.000030 -0.000119 0.204966 -3.844158 1.167597 139.999893
[Rope2_Seg07]
48 139.999893 0.000060 -0.000060 0.063476 -2.476827 0.801686 139.999893
49 139.999893 0.000060 -0.000060 0.100342 -2.412690 0.716834 139.999893
[Rope2_Seg09]
48 121.338966 0.000089 -0.000060 33.793236 -1.359788 -0.847141 121.338966
49 121.338966 0.000089 -0.000060 33.793236 -1.359788 -0.847141 121.338966
[R_mid_hand01]
48 104.680779 11.144459 -10.335981 -16.212063 45.237247 70.462852 105.778534
49 104.680779 11.144459 -10.335981 -16.212063 45.237247 70.462852 105.778534
[R_mid_hand02]
48 104.070427 2.443552 8.231699 49.067368 -67.749771 39.286453 104.424065
49 104.070427 2.443552 8.231699 49.067368 -67.749771 39.286453 104.424065
[R_mid_hand03]
48 106.028137 -11.221827 -5.996406 -177.101105 15.551026 -76.585571 106.788818
49 106.028137 -11.221827 -5.996406 -177.101105 15.551026 -76.585571 106.788818
[spine02]
48 129.756927 0.001550 0.000119 0.362174 -4.044609 -12.974898 129.756927
49 129.756927 0.001550 0.000119 0.361206 -4.044696 -12.947471 129.756927
[spine03]
48 78.613983 0.081736 -4.898991 1.898001 3.830543 16.518091 78.766518
49 78.613983 0.081736 -4.898990 1.897332 3.830874 16.498074 78.766518
[pelvis]
48 169.435242 0.051022 0.000000 -8.711453 1.467850 10.844236 169.435257
49 169.435242 0.051022 0.000000 -5.636467 0.936151 11.960971 169.435257
[null_rope03_connect]
48 -1.257226 -2.466202 137.391083 55.213112 82.244301 -55.504917 137.418976
49 -1.257226 -2.466202 137.391083 54.735615 84.956284 -58.346489 137.418976
[null_rope04_connect]
48 -1.259640 -2.480268 -137.844437 55.213112 82.244301 -55.504917 137.872513
49 -1.259640 -2.480268 -137.844437 54.735615 84.956284 -58.346489 137.872513
[Rope3_Seg01]
48 0.000000 0.000000 0.000000 -138.233017 21.666023 81.964348 0.000000
49 0.000000 0.000000 0.000000 -139.147171 24.091373 82.479218 0.000000
[Rope3_Seg02]
48 139.999924 -0.000119 0.000060 0.603204 -0.988018 -3.763124 139.999924
49 139.999924 -0.000119 0.000060 0.653446 -0.960573 -3.956405 139.999924
[Rope3_Seg03]
48 139.999924 -0.000119 0.000119 0.635103 -1.007931 -4.486093 139.999924
49 139.999924 -0.000119 0.000119 0.651593 -1.104783 -4.768985 139.999924
[Rope3_Seg04]
48 139.999924 0.000119 0.000000 0.838513 -0.319212 -6.924087 139.999924
49 139.999924 0.000119 0.000000 0.804158 -1.240080 -8.160120 139.999924
[Rope3_Seg05]
48 139.999924 -0.000238 0.000060 -0.229980 -3.650978 -0.960906 139.999924
49 139.999924 -0.000238 0.000060 -0.088172 -1.610414 0.408469 139.999924
[Rope3_Seg06]
48 139.999893 -0.000119 -0.000060 -0.365299 -4.150770 2.885531 139.999893
49 139.999893 -0.000119 -0.000060 -0.341041 -1.130445 5.620887 139.999893
[Rope3_Seg07]
48 139.999771 0.000060 -0.000119 0.190558 -2.398353 0.665456 139.999771
49 139.999771 0.000060 -0.000119 0.096312 -0.806335 2.014013 139.999771
[Rope3_Seg08]
48 139.999985 -0.000060 0.000000 0.351999 -1.572449 0.422182 139.999985
49 139.999985 -0.000060 0.000000 0.258039 -0.525465 1.256707 139.999985
[Rope3_Seg09]
48 90.185997 -0.000179 -0.000060 89.793228 -1.359877 -0.847183 90.185997
49 90.185997 -0.000179 -0.000060 89.793228 -1.359877 -0.847183 90.185997
[R_rear_hand01]
48 103.366196 -6.073594 -10.757982 -177.714203 24.565960 -73.910950 104.101845
49 103.366196 -6.073594 -10.757982 -177.714203 24.565960 -73.910950 104.101845
[R_rear_hand02]
48 100.509819 12.039542 -7.992327 -12.874834 36.868492 72.167213 101.543350
49 100.509819 12.039542 -7.992327 -12.874829 36.868488 72.167213 101.543350
[R_rear_hand03]
48 101.539970 5.215704 5.435467 71.484581 -71.816628 21.513813 101.819031
49 101.539970 5.215704 5.435467 71.484581 -71.816628 21.513813 101.819031
[Rope4_Seg01]
48 0.000010 0.000002 -0.000009 41.610744 23.080885 56.766392 0.000013
49 0.000010 0.000002 -0.000006 41.602398 22.877600 56.661659 0.000011
[Rope4_Seg02]
48 139.999985 0.000060 0.000119 0.363860 4.702608 3.392924 139.999985
49 139.999985 0.000060 0.000119 0.235113 4.251758 2.554447 139.999985
[Rope4_Seg03]
48 139.999924 0.000000 -0.000238 0.309801 5.292967 3.878503 139.999924
49 139.999924 0.000000 -0.000238 0.225014 4.766560 2.867474 139.999924
[Rope4_Seg04]
48 139.999985 0.000000 0.000119 0.361400 9.920363 9.690114 139.999985
49 139.999985 0.000000 0.000119 0.469107 9.300151 8.179508 139.999985
[Rope4_Seg05]
48 139.999802 -0.000060 -0.000119 0.527306 1.521581 -1.391169 139.999802
49 139.999802 -0.000060 -0.000119 0.347745 3.048581 -0.008894 139.999802
[Rope4_Seg06]
48 139.999924 0.000000 0.000060 1.921800 -7.460368 -11.608117 139.999924
49 139.999924 0.000000 0.000060 1.688918 -7.121001 -10.923118 139.999924
[Rope4_Seg07]
48 139.999802 0.000000 0.000000 0.277492 -3.446684 -5.377162 139.999802
49 139.999802 0.000000 0.000000 0.260521 -3.709896 -5.541112 139.999802
[Rope4_Seg08]
48 139.999924 0.000000 0.000119 -1.539018 -1.481817 -2.521168 139.999924
49 139.999924 0.000000 0.000119 -1.556886 -1.411241 -2.398192 139.999924
[Rope4_Seg09]
48 90.185791 0.000060 0.000060 -135.617828 2.228885 0.850567 90.185791
49 90.185791 0.000060 0.000060 -135.617828 2.228885 0.850567 90.185791
[L_rear_hand01]
48 101.696655 -8.392275 -7.654577 -12.874829 -36.868488 107.832764 102.329041
49 101.696655 -8.392275 -7.654577 -12.874829 -36.868488 107.832764 102.329041
[L_rear_hand02]
48 102.726799 -1.568258 5.773216 71.484581 71.816628 158.486160 102.900848
49 102.726799 -1.568258 5.773216 71.484581 71.816628 158.486160 102.900848
[L_rear_hand03]
48 104.552910 9.721220 -10.420293 -177.714203 -24.565960 -106.089035 105.519653
49 104.552910 9.721220 -10.420293 -177.714203 -24.565960 -106.089035 105.519653
